<?xml version="1.0" encoding="UTF-8" standalone="no"?>
<!-- Created with Inkscape (http://www.inkscape.org/) -->

<svg
   xmlns:dc="http://purl.org/dc/elements/1.1/"
   xmlns:cc="http://creativecommons.org/ns#"
   xmlns:rdf="http://www.w3.org/1999/02/22-rdf-syntax-ns#"
   xmlns:svg="http://www.w3.org/2000/svg"
   xmlns="http://www.w3.org/2000/svg"
   xmlns:sodipodi="http://sodipodi.sourceforge.net/DTD/sodipodi-0.dtd"
   xmlns:inkscape="http://www.inkscape.org/namespaces/inkscape"
   width="11in"
   height="8.5in"
   viewBox="0 0 279.4 215.9"
   version="1.1"
   id="svg1517"
   inkscape:version="0.92.3 (2405546, 2018-03-11)"
   sodipodi:docname="model3.svg">
  <defs
     id="defs1511" />
  <sodipodi:namedview
     id="base"
     pagecolor="#ffffff"
     bordercolor="#666666"
     borderopacity="1.0"
     inkscape:pageopacity="0.0"
     inkscape:pageshadow="2"
     inkscape:zoom="1.4"
     inkscape:cx="546.46727"
     inkscape:cy="657.80751"
     inkscape:document-units="mm"
     inkscape:current-layer="layer1"
     showgrid="false"
     units="in"
     inkscape:window-width="2560"
     inkscape:window-height="1385"
     inkscape:window-x="0"
     inkscape:window-y="27"
     inkscape:window-maximized="1" />
  <metadata
     id="metadata1514">
    <rdf:RDF>
      <cc:Work
         rdf:about="">
        <dc:format>image/svg+xml</dc:format>
        <dc:type
           rdf:resource="http://purl.org/dc/dcmitype/StillImage" />
        <dc:title></dc:title>
      </cc:Work>
    </rdf:RDF>
  </metadata>
  <g
     inkscape:label="Layer 1"
     inkscape:groupmode="layer"
     id="layer1"
     transform="translate(0,-81.1)">
    <path
       id="path7548"
       style="display:inline;opacity:1;fill:none;stroke:#000000;stroke-width:0.25;stroke-linecap:butt;stroke-linejoin:miter;stroke-miterlimit:4;stroke-dasharray:none;stroke-opacity:1"
       d="m 140.17707,121.6839 c -0.0355,0.004 0.54479,-0.0619 0.35623,0.49686 m -2.30361,-0.29084 c 0.24595,-0.21446 0.6348,-0.2203 0.68434,-0.21562 m -8.06212,0.9656 c -0.35956,-0.018 -1.1455,0.42632 -0.411,0.82563 m 6.51384,-1.06937 -6.10284,0.24374 m 7.45278,-0.83435 c 0,0 -0.36561,0.63749 -1.34994,0.59061 m -6.61696,1.05062 8.26821,-0.3305 c 0.0835,0.003 1.22447,-0.026 1.9273,-0.93552 m -0.35623,-0.49686 -1.26304,-0.01"
       inkscape:connector-curvature="0" />
    <path
       id="path7548-3"
       style="display:inline;opacity:1;fill:none;stroke:#000000;stroke-width:0.26458332px;stroke-linecap:butt;stroke-linejoin:miter;stroke-opacity:1"
       d="m 190.67771,119.9467 c -0.0355,0.004 0.54479,-0.0619 0.35624,0.49685 m -2.30362,-0.29083 c 0.24596,-0.21446 0.63481,-0.2203 0.68435,-0.21562 m -8.06213,0.9656 c -0.35955,-0.018 -1.1455,0.42631 -0.41099,0.82563 m 6.51383,-1.06937 -6.10284,0.24374 m 7.45278,-0.83435 c 0,0 -0.36561,0.63749 -1.34994,0.59061 m -6.61695,1.05062 8.26821,-0.3305 c 0.0834,0.003 1.22447,-0.026 1.9273,-0.93553 m -0.35624,-0.49685 -1.26303,-0.01"
       inkscape:connector-curvature="0" />
    <path
       style="display:inline;opacity:0.92299996;fill:none;stroke:#000000;stroke-width:0.26458332px;stroke-linecap:butt;stroke-linejoin:miter;stroke-opacity:1"
       d="m 76.207572,127.20531 c 6.965301,-0.26248 6.927801,-0.24373 6.927801,-0.24373 0,0 0.70309,0.0188 0.34686,0.27186"
       id="path7577"
       inkscape:connector-curvature="0" />
    <path
       style="display:inline;fill:none;stroke:#000000;stroke-width:0.26458332px;stroke-linecap:butt;stroke-linejoin:miter;stroke-opacity:1"
       d="m 76.320067,127.23344 c 0.09032,-0.0515 -1.057846,-0.11331 -0.787463,0.5906 0.252672,0.65779 1.593679,1.66867 1.593679,1.66867 0,0 0.78746,0.70309 1.16244,0.52497 0.37499,-0.17811 5.19351,-2.78424 5.19351,-2.78424"
       id="path7584"
       inkscape:connector-curvature="0"
       sodipodi:nodetypes="cscsc" />
    <path
       style="display:inline;fill:none;stroke:#000000;stroke-width:0.26458332px;stroke-linecap:butt;stroke-linejoin:miter;stroke-opacity:1"
       d="m 77.924863,129.90552 c -0.013,0.003 -0.18499,-1.97551 0.83523,-2.24054 0.56416,-0.14655 4.20134,-0.17395 4.20134,-0.17395"
       id="path7586"
       inkscape:connector-curvature="0"
       sodipodi:nodetypes="csc" />
    <path
       id="path7592"
       style="display:inline;fill:none;stroke:#000000;stroke-width:0.26458332px;stroke-linecap:butt;stroke-linejoin:miter;stroke-opacity:1"
       d="m 36.271929,131.56449 11.455721,-6.80594 c 0,0 0.956201,-0.46872 1.199941,-1.93116 m -12.655662,8.7371 c -5.887225,2.66237 -7.218413,2.0999 -7.218413,2.0999 0,0 -2.831118,-0.35623 3.731075,-4.63103"
       inkscape:connector-curvature="0"
       sodipodi:nodetypes="cccccc" />
    <path
       style="display:inline;fill:none;stroke:#000000;stroke-width:0.26458332px;stroke-linecap:butt;stroke-linejoin:miter;stroke-opacity:1"
       d="m 22.269311,135.5534 c 0,0 2.704558,0.0794 4.295471,7.10597"
       id="path7595"
       inkscape:connector-curvature="0"
       sodipodi:nodetypes="cc" />
    <path
       style="display:inline;fill:none;stroke:#000000;stroke-width:0.26458332px;stroke-linecap:butt;stroke-linejoin:miter;stroke-opacity:1"
       d="m 26.458723,142.91126 c -0.004,5.3e-4 1.439916,-0.74997 7.875035,-0.9678"
       id="path7599"
       inkscape:connector-curvature="0"
       sodipodi:nodetypes="cc" />
    <path
       style="display:inline;fill:none;stroke:#000000;stroke-width:0.26458332px;stroke-linecap:butt;stroke-linejoin:miter;stroke-opacity:1"
       d="m 34.333758,141.94346 -0.477274,2.70455 c 0.387321,-0.22771 -7.157368,0.98244 -7.397761,-1.73675"
       id="path7601"
       inkscape:connector-curvature="0"
       sodipodi:nodetypes="ccc" />
    <path
       style="display:inline;fill:none;stroke:#000000;stroke-width:0.26458332px;stroke-linecap:butt;stroke-linejoin:miter;stroke-opacity:1"
       d="m 79.489263,151.83365 84.636747,-1.27273 c 0.96416,-0.64967 7.35174,0.7157 14.42431,-6.78791 8.29152,-8.79686 20.66283,-25.79116 20.46979,-25.8789 0,0 -1.59092,-0.63637 -2.96971,-3.92426"
       id="path7605"
       inkscape:connector-curvature="0"
       sodipodi:nodetypes="ccscc" />
    <path
       style="display:inline;fill:none;stroke:#000000;stroke-width:0.26458332px;stroke-linecap:butt;stroke-linejoin:miter;stroke-opacity:1"
       d="m 145.88351,117.52289 c -1.25145,2.36615 -2.98288,22.7841 -1.75001,33.27667"
       id="path7607"
       inkscape:connector-curvature="0"
       sodipodi:nodetypes="cc" />
    <path
       style="display:inline;fill:none;stroke:#000000;stroke-width:0.26458332px;stroke-linecap:butt;stroke-linejoin:miter;stroke-opacity:1"
       d="m 87.231723,151.72759 c 0,0 -4.61366,-28.21225 1.11364,-33.62136"
       id="path7609"
       inkscape:connector-curvature="0"
       sodipodi:nodetypes="cc" />
    <path
       style="display:inline;fill:none;stroke:#000000;stroke-width:0.26458332px;stroke-linecap:butt;stroke-linejoin:miter;stroke-opacity:1"
       d="m 99.201293,119.33237 c 5.576527,-1.39185 105.577667,-0.0809 111.604457,-11.01483 -58.42566,-20.137687 -104.4101,-5.43223 -122.598737,9.93704"
       id="path7611"
       inkscape:connector-curvature="0"
       sodipodi:nodetypes="ccc" />
    <path
       style="display:inline;opacity:1;fill:none;stroke:#000000;stroke-width:0.26458332px;stroke-linecap:butt;stroke-linejoin:miter;stroke-opacity:1"
       d="m 95.663583,117.62895 1.43182,-3.55304 c 0,0 0.85759,-1.61233 2.87275,-1.82445 2.015157,-0.21213 4.464767,-0.0504 4.464767,-0.0504 0.27974,0.0995 0.93736,-0.0257 1.30857,0.98184 0.54561,1.53076 0.85548,3.65056 0.85548,3.65056 0,0 0.2195,0.84576 -0.81798,1.38201 -1.27368,0.65835 -18.265017,1.9022 -18.408397,1.54809"
       id="path7613"
       inkscape:connector-curvature="0"
       sodipodi:nodetypes="ccscccsc" />
    <path
       style="display:inline;fill:none;stroke:#000000;stroke-width:0.26458332px;stroke-linecap:butt;stroke-linejoin:miter;stroke-opacity:1"
       d="m 106.54366,116.56519 c -0.0937,-0.0188 -4.16231,0.11249 -4.16231,0.11249 0,0 -1.34994,0.0375 -2.1374,0.24374 -0.787457,0.20624 -6.037217,1.04995 -6.037217,1.04995 0,0 -1.96866,0.24374 -2.77487,0.22499 -0.80621,-0.0188 -3.0865,-0.0901 -3.0865,-0.0901"
       id="path7616"
       inkscape:connector-curvature="0"
       sodipodi:nodetypes="ccsccc" />
    <path
       style="display:inline;fill:none;stroke:#000000;stroke-width:0.26458332px;stroke-linecap:butt;stroke-linejoin:miter;stroke-opacity:1"
       d="m 149.01231,98.962203 c 0.21212,0 -6.46973,18.719777 -6.46973,18.719777"
       id="path7620"
       inkscape:connector-curvature="0" />
    <path
       style="display:inline;fill:none;stroke:#000000;stroke-width:0.26458332px;stroke-linecap:butt;stroke-linejoin:miter;stroke-opacity:1"
       d="M 154.63354,98.537963 150.3911,117.46986"
       id="path7622"
       inkscape:connector-curvature="0" />
    <path
       style="display:inline;fill:none;stroke:#000000;stroke-width:0.26458332px;stroke-linecap:butt;stroke-linejoin:miter;stroke-opacity:1"
       d="m 191.30847,102.82207 c -0.14999,0.1125 -1.53743,11.73696 -1.53743,11.73696"
       id="path7624"
       inkscape:connector-curvature="0" />
    <path
       style="display:inline;fill:none;stroke:#000000;stroke-width:0.26458332px;stroke-linecap:butt;stroke-linejoin:miter;stroke-opacity:1"
       d="m 22.946954,152.93917 c 0,0 8.231486,0.008 9.292098,-1.87446 1.060611,-1.88259 1.617432,-6.4167 1.617432,-6.4167"
       id="path7626"
       inkscape:connector-curvature="0" />
    <path
       style="display:inline;fill:none;stroke:#000000;stroke-width:0.26458332px;stroke-linecap:butt;stroke-linejoin:miter;stroke-opacity:1"
       d="m 22.587493,147.06103 c 0,0 8.856099,-0.8221 11.030353,-0.71604"
       id="path7628"
       inkscape:connector-curvature="0"
       sodipodi:nodetypes="cc" />
    <path
       style="display:inline;fill:none;stroke:#000000;stroke-width:0.26458332px;stroke-linecap:butt;stroke-linejoin:miter;stroke-opacity:1"
       d="m 91.825593,146.58254 c 0,0 85.421027,-2.32489 86.245987,-4.04981"
       id="path7630"
       inkscape:connector-curvature="0" />
    <path
       style="display:inline;fill:none;stroke:#000000;stroke-width:0.26458332px;stroke-linecap:butt;stroke-linejoin:miter;stroke-opacity:1"
       d="m 199.1456,117.85888 c 0,0 22.16147,-2.08116 33.89843,-0.20624"
       id="path7632"
       inkscape:connector-curvature="0"
       sodipodi:nodetypes="cc" />
    <path
       style="display:inline;fill:none;stroke:#000000;stroke-width:0.26458332px;stroke-linecap:butt;stroke-linejoin:miter;stroke-opacity:1"
       d="m 210.80575,108.31754 c 0,0 18.05722,6.52273 22.03203,9.2976"
       id="path7634"
       inkscape:connector-curvature="0"
       sodipodi:nodetypes="cc" />
    <path
       style="display:inline;fill:none;stroke:#000000;stroke-width:0.26458332px;stroke-linecap:butt;stroke-linejoin:miter;stroke-opacity:1"
       d="m 222.93825,117.03391 8.41836,6.5247 c 0,0 1.42493,1.0687 3.56233,1.36869 2.1374,0.29998 3.58108,0.46872 3.58108,0.46872 l -1.38743,-6.97467 c -0.0656,0.041 -1.72689,-0.71124 -4.27481,-0.80621"
       id="path7636"
       inkscape:connector-curvature="0"
       sodipodi:nodetypes="cccccc" />
    <path
       style="display:inline;fill:none;stroke:#000000;stroke-width:0.26458332px;stroke-linecap:butt;stroke-linejoin:miter;stroke-opacity:1"
       d="m 231.28161,123.44611 h 1.63117 c 0,0 0.69372,-0.0937 0.84371,-0.50622 0.15,-0.41248 0.20624,-3.95607 0.20624,-3.95607 0,0 -0.28123,-1.19994 -0.9187,-1.33118"
       id="path7638"
       inkscape:connector-curvature="0" />
    <path
       style="display:inline;fill:none;stroke:#000000;stroke-width:0.26458332px;stroke-linecap:butt;stroke-linejoin:miter;stroke-opacity:1"
       d="m 218.19472,135.82054 c 0.18749,-0.14999 13.46187,-1.12495 13.46187,-1.12495 0.0186,-0.0372 2.16155,0.41857 2.47488,-2.32489 0.36255,-3.17435 0.79602,-7.22624 0.86247,-7.19966"
       id="path7640"
       inkscape:connector-curvature="0"
       sodipodi:nodetypes="ccsc" />
    <path
       style="display:inline;fill:none;stroke:#000000;stroke-width:0.26458332px;stroke-linecap:butt;stroke-linejoin:miter;stroke-opacity:1"
       d="m 228.45206,147.43212 c 0,0 13.91028,-0.69959 13.5353,-1.61829"
       id="path7642"
       inkscape:connector-curvature="0" />
    <path
       style="display:inline;fill:none;stroke:#000000;stroke-width:0.26458332px;stroke-linecap:butt;stroke-linejoin:miter;stroke-opacity:1"
       d="m 241.92181,143.61392 c 0,0 -4.3485,1.2197 -4.98487,3.18183"
       id="path7644"
       inkscape:connector-curvature="0" />
    <path
       style="display:inline;fill:none;stroke:#000000;stroke-width:0.26458332px;stroke-linecap:butt;stroke-linejoin:miter;stroke-opacity:1"
       d="m 225.28189,144.1264 5.11851,-5.231 c 0,0 1.16245,-1.38744 3.29985,-1.49993 2.1374,-0.1125 9.35581,-0.43123 9.35581,-0.43123"
       id="path7646"
       inkscape:connector-curvature="0" />
    <ellipse
       style="display:inline;opacity:1;fill:none;stroke:#000000;stroke-width:0.3126927;stroke-miterlimit:4;stroke-dasharray:none;stroke-opacity:1"
       id="path7650"
       cx="203.57039"
       cy="147.44501"
       rx="17.227098"
       ry="17.339592" />
    <ellipse
       style="display:inline;opacity:1;fill:none;stroke:#000000;stroke-width:0.3126927;stroke-miterlimit:4;stroke-dasharray:none;stroke-opacity:1"
       id="path7650-6"
       cx="59.202118"
       cy="147.03253"
       rx="17.227098"
       ry="17.339592" />
    <path
       style="display:inline;fill:none;stroke:#000000;stroke-width:0.26458332px;stroke-linecap:butt;stroke-linejoin:miter;stroke-opacity:1"
       d="m 40.723939,157.22964 c -1.602381,-3.54605 -1.489279,-6.80949 -1.250982,-9.97252 0.06546,-0.86895 0.135295,-1.78322 0.259572,-2.62152 3.067886,-20.69408 40.497294,-26.84651 39.306164,12.1091"
       id="path7667"
       inkscape:connector-curvature="0"
       sodipodi:nodetypes="cssc" />
    <path
       style="display:inline;opacity:1;fill:none;stroke:#000000;stroke-width:0.26458332px;stroke-linecap:butt;stroke-linejoin:miter;stroke-opacity:1"
       d="m 38.045897,130.7275 c 0,0 4.189413,-1.7235 10.738684,0.55682"
       id="path7669"
       inkscape:connector-curvature="0" />
    <path
       id="path7833"
       style="display:inline;fill:none;stroke:#000000;stroke-width:0.26458332px;stroke-linecap:butt;stroke-linejoin:miter;stroke-opacity:1"
       d="m 55.849578,144.63733 c 0.02867,0.0287 0.795901,-0.87846 2.162318,-1.36811 m -2.162318,1.36811 c 0.0813,-0.002 0.664453,1.02497 -0.400865,1.53871 m -8.063286,-0.29521 7.60167,-0.20181 c -0.01109,-0.004 0.9579,0.10416 0.328089,0.61163 -0.570088,0.45933 -7.738023,0.46727 -7.701217,0.59056 m 2.888036,-8.07628 5.17235,5.57431 c -0.0041,-0.0112 0.554479,0.78801 -0.242523,0.65031 -0.721426,-0.12465 -5.461743,-5.50136 -5.529995,-5.39228 m -2.287868,7.24394 c 0,0 -0.741003,2.24608 1.488125,6.1744 m 0.799743,-13.41834 c 0,0 -2.396585,2.28348 -2.516404,6.24356 m 6.828925,-1.7805 c 0,0 0.675158,1.22553 -0.518854,1.61685 m 6.346632,-2.39613 c 0.02822,0.0763 -0.757028,0.95863 -1.585902,0.11495 m -2.312045,-7.73034 2.634324,7.13348 c 5.29e-4,-0.0119 0.20924,0.94055 -0.473726,0.50726 -0.618194,-0.39221 -3.154519,-7.51475 -3.259434,-7.44027 m 8.800986,0.47651 -3.616116,6.68953 c 0.0093,-0.007 -0.567997,0.77833 -0.693759,-0.0206 -0.113836,-0.72321 3.454025,-6.94012 3.328803,-6.9697 m -7.819914,-0.17575 c -0.05859,0.0586 -2.692654,0.7156 -4.543348,2.8988 m 12.363262,-2.72309 c 0,0 -2.9326,-1.53549 -6.721078,-0.37616 M 60.025078,141.6 c 0,0 -0.943504,1.03322 -1.697831,0.0283 m -3.205517,4.84922 c 0.01741,0 -0.254323,2.00715 0.859478,3.09252 m 4.579467,1.13379 c 0.08142,0.12215 -1.44012,0.68329 -3.1056,0.0692 m 2.587061,-7.452 c 0,0 1.708415,0.13378 2.609932,1.69818 m 0.629976,1.84324 c -0.05993,0.055 -1.173483,-0.33913 -0.705136,-1.42516 m 6.285558,-5.0592 -5.611188,5.13231 c 0.01114,-0.004 -0.791975,0.54882 -0.648565,-0.24717 0.129812,-0.72051 5.540306,-5.42221 5.431734,-5.49125 m 3.108717,7.99394 -7.559654,-0.82324 c 0.01048,0.006 -0.935162,-0.23215 -0.242782,-0.65022 0.626724,-0.37843 7.730509,0.57853 7.710625,0.45142 m -3.016906,-6.97189 c 0,0 -1.130411,-2.40662 -4.188108,-3.38936 m 7.205014,10.36126 c 0,0 0.31482,-3.29527 -2.18889,-6.36579 m -3.993149,5.81886 c 0,0 -1.312956,-0.48364 -0.667171,-1.5615 m -3.641468,6.0684 c -0.07055,-0.0405 -0.03214,-1.22108 1.144722,-1.10359 m 6.725031,4.45844 -6.590501,-3.79359 c 0.0073,0.009 -0.762876,-0.5886 0.03918,-0.69296 0.725993,-0.0945 6.845327,3.63825 6.878244,3.51387 m -6.677245,5.38345 -1.504598,-7.45401 c -0.0021,0.0117 -0.06193,-0.96156 0.546174,-0.42829 0.550439,0.48271 1.789544,7.54275 1.904672,7.48531 m 5.730997,-4.98646 c 0,0 1.56319,-1.21829 2.385814,-5.32011 m -8.116811,10.30657 c 0,0 3.235886,-0.69782 5.404072,-4.01378 m -6.75485,-2.04363 c 0,0 0.06336,-1.39776 1.286161,-1.1087 m -6.980529,-1.33631 c 0.02141,-0.0785 1.173652,-0.33854 1.356257,0.82999 m -2.621603,7.63092 2.012045,-7.33333 c -0.0072,0.009 0.377561,-0.8865 0.680501,-0.13655 0.274208,0.67882 -1.797551,7.54083 -1.668886,7.54137 m -6.891203,-5.1067 6.835058,-3.33289 c -0.01185,8e-4 0.914985,-0.30203 0.551995,0.42075 -0.328565,0.65425 -6.849189,3.631 -6.76461,3.72795 m 6.26876,4.29089 c 0,0 1.934538,1.36071 6.340583,0.36701 m -12.609343,-4.6579 c 0,0 1.490065,2.95595 5.2451,4.2194 m 0.277072,-7.05178 c 0,0 1.368687,-0.29061 1.396809,0.96558 m 16.008303,-4.91646 A 13.308436,13.270938 0 0 1 59.08961,160.29926 13.308436,13.270938 0 0 1 45.781174,147.02832 13.308436,13.270938 0 0 1 59.08961,133.75738 13.308436,13.270938 0 0 1 72.398046,147.02832 Z m -9.003552,0.16515 c -0.211296,-1.24319 -0.02402,1.54312 -1.113639,2.35986"
       inkscape:connector-curvature="0" />
    <path
       id="path7833-1"
       style="display:inline;fill:none;stroke:#000000;stroke-width:0.26458332px;stroke-linecap:butt;stroke-linejoin:miter;stroke-opacity:1"
       d="m 200.36289,144.83122 c 0.0287,0.0287 0.7959,-0.87846 2.16232,-1.36812 m -2.16232,1.36812 c 0.0813,-0.002 0.66445,1.02497 -0.40086,1.5387 m -8.06329,-0.29521 7.60167,-0.20181 c -0.0111,-0.004 0.9579,0.10416 0.32809,0.61163 -0.57009,0.45934 -7.73802,0.46728 -7.70122,0.59056 m 2.88804,-8.07628 5.17235,5.57431 c -0.004,-0.0112 0.55448,0.78802 -0.24252,0.65031 -0.72143,-0.12465 -5.46175,-5.50135 -5.53,-5.39228 m -2.28787,7.24394 c 0,0 -0.741,2.24609 1.48813,6.17441 m 0.79974,-13.41835 c 0,0 -2.39658,2.28348 -2.5164,6.24356 m 6.82892,-1.7805 c 0,0 0.67516,1.22553 -0.51885,1.61686 m 6.34663,-2.39614 c 0.0282,0.0763 -0.75703,0.95864 -1.5859,0.11496 m -2.31205,-7.73034 2.63433,7.13347 c 5.3e-4,-0.0119 0.20924,0.94055 -0.47373,0.50726 -0.61819,-0.39221 -3.15452,-7.51475 -3.25943,-7.44027 m 8.80098,0.47651 -3.61611,6.68953 c 0.009,-0.007 -0.568,0.77834 -0.69376,-0.0206 -0.11384,-0.72321 3.45402,-6.94012 3.3288,-6.9697 m -7.81991,-0.1757 c -0.0586,0.0586 -2.69266,0.7156 -4.54335,2.8988 m 12.36326,-2.7231 c 0,0 -2.9326,-1.53549 -6.72108,-0.37616 m 3.88089,5.89433 c 0,0 -0.9435,1.03323 -1.69783,0.0283 m -3.20552,4.84922 c 0.0174,0 -0.25432,2.00715 0.85948,3.09252 m 4.57947,1.13379 c 0.0814,0.12215 -1.44012,0.68329 -3.1056,0.0692 m 2.58706,-7.452 c 0,0 1.70841,0.13378 2.60993,1.69818 m 0.62998,1.84324 c -0.0599,0.055 -1.17349,-0.33913 -0.70514,-1.42516 m 6.28556,-5.0592 -5.61119,5.13231 c 0.0111,-0.004 -0.79197,0.54882 -0.64856,-0.24717 0.12981,-0.72051 5.5403,-5.42221 5.43173,-5.49124 m 3.10872,7.99393 -7.55966,-0.82324 c 0.0105,0.006 -0.93516,-0.23215 -0.24278,-0.65022 0.62673,-0.37843 7.73051,0.57853 7.71063,0.45142 m -3.01691,-6.97189 c 0,0 -1.13041,-2.40662 -4.18811,-3.38937 m 7.20502,10.36126 c 0,0 0.31482,-3.29527 -2.18889,-6.36578 m -3.99315,5.81886 c 0,0 -1.31296,-0.48365 -0.66717,-1.56151 m -3.64147,6.0684 c -0.0705,-0.0405 -0.0321,-1.22107 1.14472,-1.10359 m 6.72503,4.45845 -6.5905,-3.7936 c 0.007,0.009 -0.76288,-0.5886 0.0392,-0.69296 0.72599,-0.0945 6.84533,3.63826 6.87824,3.51387 m -6.67724,5.38345 -1.5046,-7.45401 c -0.002,0.0117 -0.0619,-0.96155 0.54617,-0.42828 0.55044,0.4827 1.78955,7.54275 1.90468,7.4853 m 5.73099,-4.98646 c 0,0 1.56319,-1.21828 2.38582,-5.3201 m -8.11681,10.30656 c 0,0 3.23588,-0.69782 5.40407,-4.01378 m -6.75485,-2.04362 c 0,0 0.0634,-1.39777 1.28616,-1.1087 m -6.98053,-1.33631 c 0.0214,-0.0785 1.17365,-0.33855 1.35626,0.82998 m -2.6216,7.63093 2.01204,-7.33334 c -0.007,0.009 0.37756,-0.88649 0.6805,-0.13655 0.27421,0.67882 -1.79755,7.54083 -1.66888,7.54137 m -6.89121,-5.1067 6.83506,-3.33288 c -0.0119,7.9e-4 0.91499,-0.30204 0.552,0.42075 -0.32857,0.65424 -6.84919,3.63099 -6.76461,3.72795 m 6.26876,4.29088 c 0,0 1.93453,1.36071 6.34058,0.36701 M 193.9841,154.0055 c 0,0 1.49006,2.95594 5.2451,4.2194 m 0.27707,-7.05179 c 0,0 1.36868,-0.29061 1.39681,0.96558 m 16.0083,-4.91646 a 13.308436,13.270938 0 0 1 -13.30846,13.27095 13.308436,13.270938 0 0 1 -13.30843,-13.27094 13.308436,13.270938 0 0 1 13.30843,-13.27094 13.308436,13.270938 0 0 1 13.30844,13.27094 z m -9.00355,0.16515 c -0.2113,-1.24318 -0.024,1.54312 -1.11364,2.35986"
       inkscape:connector-curvature="0" />
    <path
       style="display:inline;fill:none;stroke:#000000;stroke-width:0.26458332px;stroke-linecap:butt;stroke-linejoin:miter;stroke-opacity:1"
       d="m 184.29629,156.18209 c 0.016,-0.22406 0.0289,-0.44913 0.0391,-0.67489 0.14471,-3.19725 -0.24443,-6.53443 0.0828,-9.12464 3.04422,-24.09962 39.53282,-26.90391 38.46387,8.4121"
       id="path7648"
       inkscape:connector-curvature="0"
       sodipodi:nodetypes="cssc" />
    <path
       style="display:inline;fill:none;stroke:#000000;stroke-width:0.25;stroke-miterlimit:4;stroke-dasharray:none;stroke-opacity:1"
       d="m 218.50846,156.03337 c -3.0214,5.47592 -8.62617,8.87333 -14.92773,8.86883 -5.72286,-0.004 -12.75902,-4.44442 -14.99088,-8.62636"
       id="path7903"
       inkscape:connector-curvature="0"
       sodipodi:nodetypes="csc" />
    <path
       style="display:inline;fill:none;stroke:#000000;stroke-width:0.25;stroke-miterlimit:4;stroke-dasharray:none;stroke-opacity:1"
       d="m 45.2687,157.12227 c 3.196688,4.60386 8.40437,7.34724 13.962972,7.35562 5.719292,-0.004 11.057946,-2.90245 14.225487,-7.72356"
       id="path7901"
       inkscape:connector-curvature="0" />
    <path
       style="display:inline;fill:none;stroke:#000000;stroke-width:0.25;stroke-miterlimit:4;stroke-dasharray:none;stroke-opacity:1"
       d="m 73.488949,156.75407 5.549744,-0.009 0.22499,1.08745 100.757807,0.18749 c 0,0 2.27453,0.29582 3.09949,1.19578"
       id="path7899"
       inkscape:connector-curvature="0"
       sodipodi:nodetypes="ccccc" />
    <path
       style="display:inline;fill:none;stroke:#000000;stroke-width:0.25;stroke-miterlimit:4;stroke-dasharray:none;stroke-opacity:1"
       d="m 233.9142,113.75785 c -97.36407,-43.060797 -151.402197,4.5076 -151.402197,4.5076 -40.939575,0 -60.242692,17.28795 -60.242692,17.28795 0,0 1.803037,6.09852 0.318182,11.50763 0,0 3.509312,0.47839 0.359461,5.87814 0,0 7.886787,3.61433 14.449319,3.64084 2.094705,0.64963 3.685623,2.02842 3.685623,2.02842 0.02651,-0.0663 -0.357957,-1.37879 -0.357957,-1.37879 l 4.454564,-0.10607"
       id="path7897"
       inkscape:connector-curvature="0" />
    <path
       style="display:inline;fill:none;stroke:#000000;stroke-width:0.25;stroke-miterlimit:4;stroke-dasharray:none;stroke-opacity:1"
       d="m 239.9812,114.63403 c 0,0 -3.13442,0.30979 -6.067,-0.87631"
       id="path7895"
       inkscape:connector-curvature="0" />
    <path
       style="display:inline;fill:none;stroke:#000000;stroke-width:0.25;stroke-miterlimit:4;stroke-dasharray:none;stroke-opacity:1"
       d="m 243.05606,136.96424 c 0,0 -4.59354,-4.64979 -4.55604,-11.56822 0,0 0.76872,-1.34993 1.81867,-1.53742 l -1.64993,-5.43725 c 0,0 -0.56247,-2.43739 1.31244,-3.78732"
       id="path7893"
       inkscape:connector-curvature="0" />
    <path
       style="display:inline;fill:none;stroke:#000000;stroke-width:0.25;stroke-miterlimit:4;stroke-dasharray:none;stroke-opacity:1"
       d="m 218.64469,156.01335 20.19282,-4.29355 0.59997,-2.15615 c 0,0 0.37498,-0.67497 0.61872,-0.61872 0.13124,-0.075 0.54372,-0.63747 1.93116,-3.1311 l -0.37498,-0.91871 c 0,0 1.72492,-4.72478 1.44368,-7.93088"
       id="path175-3"
       inkscape:connector-curvature="0" />
    <path
       style="display:inline;fill:none;stroke:#000000;stroke-width:0.26458332px;stroke-linecap:butt;stroke-linejoin:miter;stroke-opacity:1"
       d="m 183.12098,159.21543 1.17531,-3.03334"
       id="path7908"
       inkscape:connector-curvature="0" />
    <path
       style="display:inline;fill:none;stroke:#000000;stroke-width:0.26458332px;stroke-linecap:butt;stroke-linejoin:miter;stroke-opacity:1"
       d="m 184.29629,156.18209 4.29356,0.0937"
       id="path7913"
       inkscape:connector-curvature="0"
       sodipodi:nodetypes="cc" />
    <g
       id="surface1"
       transform="matrix(0.26458333,0,0,0.26458333,14.93006,172.00327)">
      <path
         inkscape:connector-curvature="0"
         style="fill:#a8b0ab;fill-opacity:1;fill-rule:nonzero;stroke:none"
         d="M 3.410156,0.453125 116.76172,0.652344 c 1.58594,0 3,-0.234375 3,3.164062 l -0.14063,37.328125 H 0.546875 V 3.675781 C 0.546875,2 0.710938,0.453125 3.410156,0.453125 Z"
         id="path1717" />
      <path
         inkscape:connector-curvature="0"
         style="fill:#000000;fill-opacity:1;fill-rule:nonzero;stroke:none"
         d="M 117.75391,0 H 2.246094 C 1.007813,0 0,1.007813 0,2.246094 V 41.492188 C 0,41.773438 0.226563,42 0.507813,42 H 119.49219 C 119.77344,42 120,41.773438 120,41.492188 V 2.246094 C 120,1.007813 118.99219,0 117.75391,0 Z M 2.246094,1.015625 H 117.75391 c 0.67968,0 1.23047,0.550781 1.23047,1.230469 0,0 0,15.796875 0,27.222656 H 36.429688 c -3.027344,5.46875 -8.859375,9.183594 -15.546875,9.183594 -6.695313,0 -12.523438,-3.710938 -15.546875,-9.183594 H 1.015625 c 0,-11.425781 0,-27.222656 0,-27.222656 0,-0.679688 0.550781,-1.230469 1.230469,-1.230469 z"
         id="path1719" />
      <path
         inkscape:connector-curvature="0"
         style="fill:#ffffff;fill-opacity:1;fill-rule:nonzero;stroke:none"
         d="m 34.523438,19.550781 c 0.0039,7.53125 -6.097657,13.636719 -13.628907,13.640625 -7.527343,0.0078 -13.636718,-6.09375 -13.640625,-13.625 0,-0.0039 0,-0.0078 0,-0.01563 -0.00781,-7.527343 6.09375,-13.636718 13.625,-13.640625 7.53125,-0.00391 13.640625,6.09375 13.644532,13.625 0,0.0039 0,0.01172 0,0.01563 z"
         id="path1721" />
      <path
         inkscape:connector-curvature="0"
         style="fill:#000000;fill-opacity:1;fill-rule:nonzero;stroke:none"
         d="m 31.972656,8.445313 c 3.023438,3.023437 4.535157,6.726562 4.535157,11.105468 0,4.378907 -1.488282,8.042969 -4.457032,10.988282 -3.15625,3.101562 -6.882812,4.652343 -11.183593,4.652343 -4.25,0 -7.910157,-1.539062 -10.984375,-4.613281 -3.078125,-3.074219 -4.613282,-6.75 -4.613282,-11.027344 0,-4.273437 1.535157,-7.976562 4.613282,-11.105468 2.996093,-3.023438 6.65625,-4.535157 10.984375,-4.535157 4.378906,0 8.082031,1.511719 11.105468,4.535157 z m -20.054687,2.035156 c -2.558594,2.582031 -3.835938,5.605469 -3.835938,9.074219 0,3.46875 1.265625,6.46875 3.792969,8.996093 2.53125,2.53125 5.542969,3.792969 9.039063,3.792969 3.496093,0 6.53125,-1.277344 9.113281,-3.832031 2.453125,-2.371094 3.679687,-5.359375 3.679687,-8.957031 0,-3.570313 -1.246093,-6.601563 -3.738281,-9.09375 -2.492187,-2.488282 -5.507812,-3.734375 -9.054687,-3.734375 -3.546875,0 -6.546875,1.25 -8.996094,3.753906 z m 6.726562,7.550781 c -0.390625,-0.851562 -0.976562,-1.277344 -1.757812,-1.277344 -1.375,0 -2.066406,0.925782 -2.066406,2.78125 0,1.855469 0.691406,2.785157 2.066406,2.785157 0.910156,0 1.5625,-0.453125 1.953125,-1.359375 L 20.75,21.980469 c -0.910156,1.617187 -2.277344,2.425781 -4.097656,2.425781 -1.40625,0 -2.53125,-0.429687 -3.378906,-1.292969 -0.84375,-0.859375 -1.269532,-2.046875 -1.269532,-3.5625 0,-1.488281 0.4375,-2.667968 1.308594,-3.542968 0.871094,-0.875 1.960938,-1.3125 3.261719,-1.3125 1.925781,0 3.304687,0.757812 4.136719,2.277343 z m 8.988282,0 c -0.390625,-0.851562 -0.964844,-1.277344 -1.71875,-1.277344 -1.40625,0 -2.109375,0.925782 -2.109375,2.78125 0,1.855469 0.703125,2.785157 2.109375,2.785157 0.914062,0 1.550781,-0.453125 1.914062,-1.359375 l 1.953125,1.019531 c -0.910156,1.617187 -2.273437,2.425781 -4.089844,2.425781 -1.40625,0 -2.527343,-0.429687 -3.375,-1.292969 -0.839843,-0.859375 -1.265625,-2.046875 -1.265625,-3.5625 0,-1.488281 0.429688,-2.667968 1.289063,-3.542968 0.855469,-0.875 1.945312,-1.3125 3.273437,-1.3125 1.921875,0 3.296875,0.757812 4.128907,2.277343 z"
         id="path1723" />
      <path
         inkscape:connector-curvature="0"
         style="fill:#ffffff;fill-opacity:1;fill-rule:nonzero;stroke:none"
         d="m 62.503906,15.222656 c 0,5.929688 -4.808593,10.738282 -10.742187,10.738282 -5.929688,0 -10.738281,-4.808594 -10.738281,-10.738282 0,-5.929687 4.808593,-10.738281 10.738281,-10.738281 5.933594,0 10.742187,4.808594 10.742187,10.738281 z"
         id="path1725" />
      <path
         inkscape:connector-curvature="0"
         style="fill:#000000;fill-opacity:1;fill-rule:nonzero;stroke:none"
         d="m 54.871094,12.117188 c 0,-0.414063 -0.335938,-0.75 -0.75,-0.75 h -4.742188 c -0.414062,0 -0.75,0.335937 -0.75,0.75 v 4.742187 h 1.324219 v 5.617188 h 3.59375 v -5.617188 h 1.324219 z"
         id="path1727" />
      <path
         inkscape:connector-curvature="0"
         style="fill:#000000;fill-opacity:1;fill-rule:nonzero;stroke:none"
         d="m 53.371094,9.121094 c 0,0.894531 -0.722656,1.621094 -1.621094,1.621094 -0.894531,0 -1.621094,-0.726563 -1.621094,-1.621094 C 50.128906,8.226563 50.855469,7.5 51.75,7.5 c 0.898438,0 1.621094,0.726563 1.621094,1.621094 z"
         id="path1729" />
      <path
         inkscape:connector-curvature="0"
         style="fill:#000000;fill-opacity:1;fill-rule:evenodd;stroke:none"
         d="m 51.734375,3.390625 c -3.210937,0 -5.929687,1.121094 -8.15625,3.363281 -2.28125,2.320313 -3.421875,5.0625 -3.421875,8.234375 0,3.167969 1.140625,5.894532 3.421875,8.171875 2.285156,2.28125 5.003906,3.421875 8.15625,3.421875 3.195313,0 5.960938,-1.148437 8.304688,-3.449218 2.207031,-2.183594 3.308593,-4.898438 3.308593,-8.144532 0,-3.25 -1.121093,-5.992187 -3.367187,-8.234375 C 57.734375,4.511719 54.988281,3.390625 51.734375,3.390625 Z m 0.03125,2.089844 c 2.632813,0 4.867188,0.925781 6.703125,2.78125 1.859375,1.835937 2.789063,4.078125 2.789063,6.726562 0,2.664063 -0.910157,4.878907 -2.730469,6.636719 -1.914063,1.894531 -4.167969,2.839844 -6.761719,2.839844 -2.59375,0 -4.828125,-0.9375 -6.707031,-2.8125 -1.875,-1.871094 -2.8125,-4.09375 -2.8125,-6.664063 0,-2.570312 0.945312,-4.8125 2.84375,-6.726562 1.820312,-1.855469 4.042969,-2.78125 6.675781,-2.78125 z"
         id="path1731" />
      <path
         inkscape:connector-curvature="0"
         style="fill:#ffffff;fill-opacity:1;fill-rule:nonzero;stroke:none"
         d="m 48.402344,32.746094 c 0.3125,0 0.601562,0.03125 0.863281,0.08594 0.257813,0.05469 0.484375,0.144532 0.667969,0.273438 0.1875,0.125 0.328125,0.292969 0.433594,0.503906 0.101562,0.210938 0.152343,0.46875 0.152343,0.777344 0,0.335937 -0.07422,0.613281 -0.226562,0.835937 -0.152344,0.222657 -0.378906,0.402344 -0.675781,0.546875 0.410156,0.117188 0.714843,0.324219 0.917968,0.617188 0.203125,0.292969 0.304688,0.648437 0.304688,1.0625 0,0.332031 -0.06641,0.621094 -0.195313,0.867187 -0.132812,0.242188 -0.308593,0.445313 -0.527343,0.597657 -0.21875,0.15625 -0.472657,0.269531 -0.753907,0.34375 -0.28125,0.07422 -0.570312,0.113281 -0.867187,0.113281 h -3.21875 v -6.625 z m -0.1875,2.679687 c 0.261719,0 0.472656,-0.0625 0.640625,-0.183593 0.167969,-0.125 0.25,-0.324219 0.25,-0.601563 0,-0.15625 -0.02734,-0.28125 -0.08203,-0.378906 -0.05469,-0.101563 -0.128907,-0.175781 -0.222657,-0.234375 -0.09375,-0.05469 -0.199218,-0.09375 -0.320312,-0.113281 -0.121094,-0.02344 -0.246094,-0.03516 -0.378906,-0.03516 h -1.363282 v 1.546875 z m 0.08594,2.808594 c 0.140625,0 0.277344,-0.01172 0.40625,-0.03906 0.132813,-0.02734 0.246094,-0.07422 0.347657,-0.140625 0.09766,-0.0625 0.175781,-0.152344 0.234375,-0.265625 0.05859,-0.109375 0.08984,-0.25 0.08984,-0.425782 0,-0.339843 -0.09766,-0.582031 -0.289062,-0.726562 -0.191406,-0.144531 -0.445313,-0.21875 -0.761719,-0.21875 h -1.589844 v 1.816406 z"
         id="path1733" />
      <path
         inkscape:connector-curvature="0"
         style="fill:#ffffff;fill-opacity:1;fill-rule:nonzero;stroke:none"
         d="m 51.09375,32.746094 h 1.632813 l 1.550781,2.617187 1.542969,-2.617187 h 1.625 l -2.460938,4.082031 v 2.542969 h -1.460937 v -2.582031 z"
         id="path1735" />
      <path
         inkscape:connector-curvature="0"
         style="fill:#ffffff;fill-opacity:1;fill-rule:nonzero;stroke:none"
         d="m 98.441406,37.730469 c 0.07813,0.15625 0.183594,0.28125 0.320313,0.378906 0.132812,0.09375 0.285156,0.164063 0.464844,0.210938 0.179687,0.04687 0.363281,0.07031 0.554687,0.07031 0.128906,0 0.26953,-0.01172 0.41797,-0.03125 0.14844,-0.02344 0.28516,-0.0625 0.41797,-0.125 0.1289,-0.0625 0.23437,-0.148437 0.32422,-0.257812 0.082,-0.105469 0.1289,-0.246094 0.1289,-0.410157 0,-0.179687 -0.0586,-0.324218 -0.17187,-0.4375 -0.11328,-0.109375 -0.26563,-0.203125 -0.44922,-0.277343 -0.1875,-0.07422 -0.39844,-0.140625 -0.628907,-0.195313 -0.238282,-0.05469 -0.472657,-0.117187 -0.714844,-0.183594 -0.246094,-0.0625 -0.488281,-0.140625 -0.722656,-0.230468 -0.234375,-0.08594 -0.445313,-0.203125 -0.628907,-0.347657 -0.1875,-0.140625 -0.335937,-0.320312 -0.449218,-0.53125 -0.113282,-0.214843 -0.171875,-0.472656 -0.171875,-0.773437 0,-0.34375 0.07422,-0.636719 0.21875,-0.886719 0.144531,-0.25 0.332031,-0.460937 0.566406,-0.628906 0.234375,-0.164063 0.503906,-0.289063 0.800781,-0.371094 0.292969,-0.07813 0.589844,-0.117187 0.886719,-0.117187 0.347656,0 0.679691,0.03906 0.996091,0.113281 0.32032,0.07813 0.60157,0.203125 0.84766,0.378906 0.25,0.171875 0.44531,0.394531 0.58984,0.660156 0.14453,0.273438 0.21875,0.597657 0.21875,0.980469 h -1.41406 c -0.0117,-0.199219 -0.0547,-0.363281 -0.125,-0.492187 -0.0703,-0.128907 -0.16406,-0.230469 -0.28125,-0.304688 -0.11719,-0.07422 -0.25,-0.128906 -0.40234,-0.15625 -0.148441,-0.03125 -0.31641,-0.04687 -0.492191,-0.04687 -0.117188,0 -0.234375,0.01172 -0.351563,0.03516 -0.117187,0.02734 -0.222656,0.07031 -0.316406,0.128907 -0.09766,0.0625 -0.175781,0.140625 -0.238281,0.234375 -0.05859,0.09375 -0.08984,0.210937 -0.08984,0.351562 0,0.128906 0.02344,0.234375 0.07031,0.316406 0.05078,0.07813 0.148437,0.15625 0.292968,0.222657 0.148438,0.06641 0.347657,0.136718 0.601563,0.203125 0.257812,0.06641 0.59375,0.15625 1.00781,0.261718 0.1211,0.02344 0.29297,0.07031 0.51172,0.132813 0.21875,0.06641 0.4375,0.167969 0.65234,0.3125 0.21875,0.140625 0.40235,0.332031 0.5625,0.570312 0.15625,0.238282 0.23438,0.542969 0.23438,0.914063 0,0.300781 -0.0586,0.582031 -0.17578,0.84375 -0.11719,0.257812 -0.29297,0.484375 -0.52344,0.671875 -0.23047,0.1875 -0.51953,0.335937 -0.86328,0.441406 -0.34375,0.105469 -0.73828,0.15625 -1.191406,0.15625 -0.363282,0 -0.71875,-0.04297 -1.0625,-0.132812 -0.34375,-0.08984 -0.644532,-0.230469 -0.90625,-0.425782 -0.265625,-0.191406 -0.472657,-0.4375 -0.628907,-0.734375 -0.152343,-0.296875 -0.226562,-0.648437 -0.222656,-1.054687 h 1.414063 c 0,0.222656 0.03906,0.410156 0.121093,0.5625 z"
         id="path1737" />
      <path
         inkscape:connector-curvature="0"
         style="fill:#ffffff;fill-opacity:1;fill-rule:nonzero;stroke:none"
         d="m 106.64453,32.746094 2.47656,6.625 h -1.51171 l -0.5,-1.476563 h -2.47657 l -0.51953,1.476563 h -1.46484 l 2.5039,-6.625 z m 0.0859,4.0625 -0.83594,-2.429688 h -0.0195 l -0.85937,2.429688 z"
         id="path1739" />
      <path
         inkscape:connector-curvature="0"
         style="fill:#ffffff;fill-opacity:1;fill-rule:nonzero;stroke:none"
         d="m 72.519531,32.746094 2.765625,4.445312 h 0.01563 v -4.445312 h 1.367188 v 6.625 H 75.210938 L 72.453125,34.9375 h -0.01953 v 4.433594 h -1.363281 v -6.625 z"
         id="path1741" />
      <path
         inkscape:connector-curvature="0"
         style="fill:#ffffff;fill-opacity:1;fill-rule:nonzero;stroke:none"
         d="M 82.195313,34.511719 C 82.109375,34.371094 82,34.25 81.871094,34.144531 81.742188,34.039063 81.59375,33.957031 81.429688,33.898438 81.265625,33.839844 81.09375,33.8125 80.914063,33.8125 c -0.328125,0 -0.605469,0.0625 -0.835938,0.1875 -0.226562,0.128906 -0.414062,0.296875 -0.554687,0.511719 -0.140625,0.210937 -0.246094,0.453125 -0.3125,0.726562 -0.0625,0.273438 -0.09766,0.554688 -0.09766,0.84375 0,0.277344 0.03516,0.550782 0.09766,0.8125 0.06641,0.261719 0.171875,0.5 0.3125,0.707032 0.140625,0.210937 0.328125,0.378906 0.554687,0.507812 0.230469,0.125 0.507813,0.1875 0.835938,0.1875 0.445312,0 0.792968,-0.132812 1.042968,-0.40625 0.253907,-0.273437 0.40625,-0.632812 0.460938,-1.078125 h 1.410156 c -0.03516,0.414063 -0.132812,0.789063 -0.289062,1.125 -0.152344,0.332031 -0.359375,0.617188 -0.609375,0.851563 -0.253907,0.238281 -0.550782,0.417968 -0.890625,0.542968 -0.339844,0.121094 -0.714844,0.183594 -1.125,0.183594 -0.507813,0 -0.960938,-0.08594 -1.367188,-0.265625 -0.40625,-0.171875 -0.746094,-0.417969 -1.027344,-0.726562 -0.277343,-0.308594 -0.492187,-0.671875 -0.640625,-1.089844 -0.148437,-0.417969 -0.222656,-0.867188 -0.222656,-1.351563 0,-0.496093 0.07422,-0.953125 0.222656,-1.378906 0.148438,-0.421875 0.363282,-0.792969 0.640625,-1.109375 0.28125,-0.3125 0.621094,-0.5625 1.027344,-0.742187 0.40625,-0.179688 0.859375,-0.265625 1.367188,-0.265625 0.367187,0 0.710937,0.05078 1.035156,0.15625 0.324219,0.105468 0.617187,0.257812 0.871094,0.460937 0.257812,0.199219 0.46875,0.449219 0.636718,0.746094 0.167969,0.296875 0.273438,0.636719 0.316407,1.019531 h -1.410157 c -0.02734,-0.164062 -0.08203,-0.320312 -0.167968,-0.457031 z"
         id="path1743" />
      <path
         inkscape:connector-curvature="0"
         style="fill:#ffffff;fill-opacity:1;fill-rule:nonzero;stroke:none"
         d="m 114.57813,14.980469 c 0.008,5.84375 -4.73047,10.585937 -10.57422,10.59375 -5.84766,0 -10.589847,-4.730469 -10.593754,-10.578125 0,-0.0039 0,-0.01172 0,-0.01563 -0.0039,-5.84375 4.730469,-10.585938 10.578124,-10.589844 5.84375,-0.00781 10.58594,4.730469 10.58985,10.574219 0,0.0039 0,0.01172 0,0.01563 z"
         id="path1745" />
      <path
         inkscape:connector-curvature="0"
         style="fill:#000000;fill-opacity:1;fill-rule:nonzero;stroke:none"
         d="m 103.91797,3.386719 c -3.21094,0 -5.929689,1.121094 -8.156251,3.359375 -2.28125,2.320312 -3.425781,5.066406 -3.425781,8.234375 0,3.167969 1.144531,5.894531 3.425781,8.175781 2.285156,2.28125 5.003911,3.417969 8.156251,3.417969 3.19531,0 5.96094,-1.148438 8.30078,-3.449219 2.20703,-2.183594 3.3125,-4.898437 3.3125,-8.144531 0,-3.246094 -1.125,-5.992188 -3.36719,-8.234375 -2.24609,-2.238281 -4.99218,-3.359375 -8.24609,-3.359375 z m 0.0312,2.085937 c 2.62891,0 4.86328,0.925782 6.70312,2.785157 1.85938,1.832031 2.78516,4.074218 2.78516,6.722656 0,2.667969 -0.90625,4.878906 -2.72656,6.640625 -1.91406,1.890625 -4.17188,2.839844 -6.76172,2.839844 -2.59375,0 -4.828126,-0.9375 -6.707032,-2.8125 -1.875,-1.875 -2.816407,-4.097657 -2.816407,-6.667969 0,-2.570313 0.949219,-4.8125 2.847657,-6.722656 1.816406,-1.859375 4.042972,-2.785157 6.675782,-2.785157 z"
         id="path1747" />
      <path
         inkscape:connector-curvature="0"
         style="fill:#000000;fill-opacity:1;fill-rule:nonzero;stroke:none"
         d="m 98.777344,13.34375 c 0.464844,-2.917969 2.515626,-4.476562 5.093746,-4.476562 3.69922,0 5.95704,2.6875 5.95704,6.269531 0,3.492187 -2.40235,6.207031 -6.01563,6.207031 -2.48828,0 -4.714844,-1.527344 -5.121094,-4.535156 h 2.921874 c 0.0859,1.5625 1.09766,2.109375 2.54688,2.109375 1.64453,0 2.71875,-1.53125 2.71875,-3.871094 0,-2.453125 -0.92578,-3.753906 -2.66407,-3.753906 -1.26953,0 -2.37109,0.464844 -2.60156,2.050781 l 0.84766,-0.0039 -2.29688,2.296875 -2.300779,-2.296875 z"
         id="path1749" />
      <path
         inkscape:connector-curvature="0"
         style="fill:#ffffff;fill-opacity:1;fill-rule:nonzero;stroke:none"
         d="m 88.628906,14.980469 c 0.0039,5.957031 -4.820312,10.789062 -10.777343,10.792969 -5.957032,0.0039 -10.792969,-4.820313 -10.796875,-10.777344 0,-0.0039 0,-0.01172 0,-0.01563 C 67.050781,9.023438 71.878906,4.191406 77.835938,4.1875 83.792969,4.183594 88.625,9.007813 88.628906,14.964844 c 0,0.0039 0,0.01172 0,0.01563 z"
         id="path1751" />
      <path
         inkscape:connector-curvature="0"
         style="fill:#000000;fill-opacity:1;fill-rule:nonzero;stroke:none"
         d="m 77.828125,3.386719 c 3.25,0 5.996094,1.121094 8.242188,3.359375 2.246093,2.242187 3.367187,4.988281 3.367187,8.234375 0,3.246094 -1.101562,5.960937 -3.308594,8.144531 -2.339843,2.300781 -5.109375,3.449219 -8.300781,3.449219 -3.15625,0 -5.875,-1.136719 -8.15625,-3.417969 -2.285156,-2.28125 -3.425781,-5.007812 -3.425781,-8.175781 0,-3.167969 1.140625,-5.914063 3.425781,-8.234375 2.226563,-2.238281 4.941406,-3.359375 8.15625,-3.359375 z m -8.972656,8.480469 c -0.347656,0.976562 -0.519531,2.015625 -0.519531,3.113281 0,2.570312 0.9375,4.792969 2.816406,6.667969 1.875,1.875 4.109375,2.8125 6.703125,2.8125 2.59375,0 4.847656,-0.949219 6.765625,-2.84375 C 85.261719,21 85.789063,20.324219 86.203125,19.589844 l -4.371094,-1.945313 c -0.296875,1.46875 -1.605468,2.464844 -3.191406,2.582032 v 1.785156 H 77.308594 V 20.226563 C 76.007813,20.210938 74.75,19.675781 73.789063,18.835938 l 1.597656,-1.609375 c 0.769531,0.722656 1.539062,1.046875 2.589844,1.046875 0.679687,0 1.433593,-0.265625 1.433593,-1.152344 0,-0.3125 -0.121093,-0.53125 -0.3125,-0.695313 l -1.105468,-0.492187 -1.378907,-0.613281 c -0.679687,-0.304688 -1.257812,-0.558594 -1.835937,-0.816407 z m 9,-6.394532 c -2.632813,0 -4.855469,0.925782 -6.675781,2.785157 -0.496094,0.496093 -0.925782,1.019531 -1.289063,1.5625 l 4.429688,1.976562 c 0.402343,-1.230469 1.570312,-1.976562 2.988281,-2.058594 V 7.949219 h 1.332031 v 1.789062 c 0.917969,0.042969 1.921875,0.292969 2.914063,1.0625 L 80.03125,12.367188 C 79.46875,11.96875 78.757813,11.6875 78.046875,11.6875 c -0.574219,0 -1.386719,0.175781 -1.386719,0.898438 0,0.113281 0.03516,0.210937 0.101563,0.296875 l 1.484375,0.660156 1.003906,0.445312 c 0.640625,0.285157 1.253906,0.558594 1.863281,0.828125 l 5.941407,2.648438 c 0.195312,-0.78125 0.292968,-1.609375 0.292968,-2.484375 0,-2.648438 -0.929687,-4.890625 -2.785156,-6.722656 C 82.722656,6.398438 80.488281,5.472656 77.855469,5.472656 Z"
         id="path1753" />
    </g>
  </g>
</svg>
